<?xml version="1.0" encoding="UTF-8" standalone="no"?>
<!-- Created with Inkscape (http://www.inkscape.org/) -->

<svg
   xmlns:dc="http://purl.org/dc/elements/1.1/"
   xmlns:cc="http://creativecommons.org/ns#"
   xmlns:rdf="http://www.w3.org/1999/02/22-rdf-syntax-ns#"
   xmlns:svg="http://www.w3.org/2000/svg"
   xmlns="http://www.w3.org/2000/svg"
   xmlns:sodipodi="http://sodipodi.sourceforge.net/DTD/sodipodi-0.dtd"
   xmlns:inkscape="http://www.inkscape.org/namespaces/inkscape"
   id="svg2"
   version="1.1"
   inkscape:version="0.91 r13725"
   width="200"
   height="200"
   viewBox="0 0 200 200"
   sodipodi:docname="ros.svg">
  <metadata
     id="metadata8">
    <rdf:RDF>
      <cc:Work
         rdf:about="">
        <dc:format>image/svg+xml</dc:format>
        <dc:type
           rdf:resource="http://purl.org/dc/dcmitype/StillImage" />
        <dc:title></dc:title>
      </cc:Work>
    </rdf:RDF>
  </metadata>
  <defs
     id="defs6" />
  <sodipodi:namedview
     pagecolor="#ffffff"
     bordercolor="#666666"
     borderopacity="1"
     objecttolerance="10"
     gridtolerance="10"
     guidetolerance="10"
     inkscape:pageopacity="0"
     inkscape:pageshadow="2"
     inkscape:window-width="1855"
     inkscape:window-height="1056"
     id="namedview4"
     showgrid="false"
     inkscape:zoom="4.3282031"
     inkscape:cx="61.069295"
     inkscape:cy="100"
     inkscape:window-x="65"
     inkscape:window-y="24"
     inkscape:window-maximized="1"
     inkscape:current-layer="svg2" />
  <g
     id="g3338"
     transform="translate(0.13557058,2.6731101e-8)">
    <path
       style="fill:#f9f9fa"
       d="M 0,100 0,0 l 100,0 100,0 0,100 0,100 -100,0 -100,0 0,-100 z m 45.352649,79.5361 C 57.166188,174.50241 60.263683,160.19735 51.734844,150.0614 47.028216,144.46789 40.28619,142.82367 33.181937,145.53681 25.318876,148.53975 21.875,153.70641 21.875,162.5 c 0,8.03096 3.145488,13.46632 9.647729,16.67115 5.057375,2.49267 8.615971,2.58659 13.82992,0.36495 z m 62.500001,0 c 11.81354,-5.03369 14.91103,-19.33875 6.38219,-29.4747 -4.70662,-5.59351 -11.44865,-7.23773 -18.552903,-4.52459 C 87.818876,148.53975 84.375,153.70641 84.375,162.5 c 0,8.03096 3.145488,13.46632 9.647729,16.67115 5.057375,2.49267 8.615971,2.58659 13.829921,0.36495 z m 65.37965,-1.36646 c 10.54121,-6.90686 10.58852,-24.40141 0.0846,-31.28385 -5.26298,-3.44845 -10.86942,-3.57915 -16.9744,-0.39571 -7.1635,3.7354 -10.4264,9.56673 -9.74323,17.41272 1.20608,13.85176 15.54428,21.53248 26.63305,14.26684 z M 48.376814,115.05061 c 10.960568,-6.68305 10.960568,-24.668165 0,-31.351215 -13.168643,-8.029392 -29.489565,3.939139 -26.572858,19.486525 0.893048,4.76035 6.02704,11.50829 9.969092,13.10301 4.636239,1.87556 12.452942,1.29258 16.603766,-1.23832 z m 62.499996,0 c 11.03841,-6.73051 11.00646,-24.342615 -0.0566,-31.179931 -13.219359,-8.170015 -29.454033,3.655791 -26.516303,19.315241 0.893048,4.76035 6.02704,11.50829 9.969092,13.10301 4.63624,1.87556 12.452941,1.29258 16.603761,-1.23832 z m 61.56459,0.6047 c 8.27899,-4.28124 11.54655,-17.805132 6.33814,-26.232525 C 169.55596,74.498726 146.25,81.629044 146.25,99.375 c 0,6.88867 5.34755,15.08454 11.25,17.24222 3.69047,1.34907 11.43682,0.85037 14.9414,-0.96191 z M 45.352649,53.286099 C 57.166188,48.252415 60.263683,33.947345 51.734844,23.811395 47.028216,18.217886 40.28619,16.573679 33.181937,19.286817 25.318876,22.289747 21.875,27.456409 21.875,36.25 c 0,8.030961 3.145488,13.466321 9.647729,16.671146 5.057375,2.49268 8.615971,2.586586 13.82992,0.364953 z m 62.500001,0 c 11.77938,-5.01913 14.9113,-19.33843 6.43341,-29.413842 -6.52773,-7.757767 -17.50575,-8.069233 -24.869394,-0.705591 -9.036559,9.036559 -6.691357,24.186206 4.606063,29.75448 5.057375,2.49268 8.615971,2.586586 13.829921,0.364953 z M 173.2323,51.91964 c 11.51861,-7.547288 10.37912,-25.882579 -2.00721,-32.297594 -11.97444,-6.201684 -26.24015,4.538909 -24.65913,18.565741 1.5212,13.49604 15.80243,20.850167 26.66634,13.731853 z"
       id="path3342"
       inkscape:connector-curvature="0" />
    <path
       style="fill:#28324e"
       d="M 31.522729,179.17115 C 25.020488,175.96632 21.875,170.53096 21.875,162.5 c 0,-8.79359 3.443876,-13.96025 11.306937,-16.96319 21.464494,-8.19736 33.340594,24.97891 12.170712,33.99929 -5.213949,2.22164 -8.772545,2.12772 -13.82992,-0.36495 z m 62.5,0 C 87.520488,175.96632 84.375,170.53096 84.375,162.5 c 0,-8.79359 3.443876,-13.96025 11.306938,-16.96319 21.464492,-8.19736 33.340602,24.97891 12.170712,33.99929 -5.21395,2.22164 -8.772546,2.12772 -13.829921,-0.36495 z m 62.499991,0.067 c -8.93465,-4.54954 -12.78985,-16.72625 -8.06965,-25.4881 3.06119,-5.68231 11.79325,-10.39345 17.61664,-9.50455 9.00279,1.3742 15.17094,8.79609 15.17094,18.25455 0,13.40494 -13.41875,22.49165 -24.71793,16.7381 z M 31.773047,116.28893 c -3.942051,-1.59472 -9.076043,-8.34266 -9.969091,-13.10301 -2.916707,-15.547386 13.404215,-27.515917 26.572858,-19.486525 10.960568,6.68305 10.960568,24.668155 0,31.351205 -4.150824,2.53091 -11.967527,3.11389 -16.603767,1.23833 z m 62.5,0 c -3.942051,-1.59472 -9.076043,-8.34266 -9.969091,-13.10301 -2.93773,-15.65945 13.296944,-27.485256 26.516304,-19.315241 11.06301,6.837316 11.09496,24.449421 0.0566,31.179921 -4.15082,2.53091 -11.967524,3.11389 -16.603764,1.23833 z M 157.5,116.61722 c -5.90245,-2.15768 -11.25,-10.35355 -11.25,-17.24222 0,-17.745956 23.30596,-24.876274 32.52954,-9.952215 5.20841,8.427392 1.94085,21.951285 -6.33814,26.232525 -3.50458,1.81228 -11.25093,2.31098 -14.9414,0.96191 z M 31.522729,52.921146 C 25.020488,49.716321 21.875,44.280961 21.875,36.25 c 0,-8.793591 3.443876,-13.960253 11.306937,-16.963183 21.464494,-8.197364 33.340594,24.978912 12.170712,33.999282 -5.213949,2.221633 -8.772545,2.127727 -13.82992,-0.364953 z m 62.5,0 c -11.29742,-5.568274 -13.642622,-20.717921 -4.606063,-29.75448 7.363644,-7.363642 18.341664,-7.052176 24.869394,0.705591 8.47789,10.075412 5.34597,24.394712 -6.43341,29.413842 -5.21395,2.221633 -8.772546,2.127727 -13.829921,-0.364953 z m 62.499991,0.06695 c -12.12686,-6.175009 -13.56228,-24.055256 -2.56008,-31.889512 11.56437,-8.234559 27.29455,0.42758 27.28268,15.023767 -0.0112,13.537172 -13.36648,22.648285 -24.7226,16.865745 z"
       id="path3340"
       inkscape:connector-curvature="0" />
  </g>
</svg>
